<svg xmlns="http://www.w3.org/2000/svg" width="160" height="160" viewBox="0 0 160 160">
  <g id="그룹_330" data-name="그룹 330" transform="translate(-125 -768)">
    <rect id="사각형_336" data-name="사각형 336" width="160" height="160" rx="25" transform="translate(125 768)" fill="#ffc044"/>
    <g id="사각형_354" data-name="사각형 354" transform="translate(146 797)" fill="none" stroke="#fff" stroke-width="5">
      <rect width="56" height="102" stroke="none"/>
      <rect x="2.5" y="2.5" width="51" height="97" fill="none"/>
    </g>
    <g id="사각형_355" data-name="사각형 355" transform="translate(146 797)" fill="none" stroke="#fff" stroke-width="5">
      <rect width="56" height="10" stroke="none"/>
      <rect x="2.5" y="2.5" width="51" height="5" fill="none"/>
    </g>
    <g id="사각형_356" data-name="사각형 356" transform="translate(146 887)" fill="none" stroke="#fff" stroke-width="5">
      <rect width="56" height="10" stroke="none"/>
      <rect x="2.5" y="2.5" width="51" height="5" fill="none"/>
    </g>
    <g id="사각형_357" data-name="사각형 357" transform="translate(155 815)" fill="none" stroke="#fff" stroke-width="5">
      <rect width="34" height="10" stroke="none"/>
      <rect x="2.5" y="2.5" width="29" height="5" fill="none"/>
    </g>
    <g id="사각형_358" data-name="사각형 358" transform="translate(155 869)" fill="none" stroke="#fff" stroke-width="5">
      <rect width="10" height="10" stroke="none"/>
      <rect x="2.5" y="2.5" width="5" height="5" fill="none"/>
    </g>
    <g id="사각형_359" data-name="사각형 359" transform="translate(167 869)" fill="none" stroke="#fff" stroke-width="5">
      <rect width="10" height="10" stroke="none"/>
      <rect x="2.5" y="2.5" width="5" height="5" fill="none"/>
    </g>
    <g id="사각형_360" data-name="사각형 360" transform="translate(155 856)" fill="none" stroke="#fff" stroke-width="5">
      <rect width="10" height="10" stroke="none"/>
      <rect x="2.5" y="2.5" width="5" height="5" fill="none"/>
    </g>
    <g id="사각형_361" data-name="사각형 361" transform="translate(167 843)" fill="none" stroke="#fff" stroke-width="5">
      <rect width="10" height="10" stroke="none"/>
      <rect x="2.5" y="2.5" width="5" height="5" fill="none"/>
    </g>
    <g id="사각형_362" data-name="사각형 362" transform="translate(210 797)" fill="none" stroke="#fff" stroke-width="5">
      <rect width="56" height="102" stroke="none"/>
      <rect x="2.5" y="2.5" width="51" height="97" fill="none"/>
    </g>
    <g id="사각형_363" data-name="사각형 363" transform="translate(220 815)" fill="none" stroke="#fff" stroke-width="5">
      <rect width="34" height="10" stroke="none"/>
      <rect x="2.5" y="2.5" width="29" height="5" fill="none"/>
    </g>
    <g id="사각형_364" data-name="사각형 364" transform="translate(220 829)" fill="none" stroke="#fff" stroke-width="5">
      <rect width="34" height="10" stroke="none"/>
      <rect x="2.5" y="2.5" width="29" height="5" fill="none"/>
    </g>
    <g id="사각형_365" data-name="사각형 365" transform="translate(220 843)" fill="none" stroke="#fff" stroke-width="5">
      <rect width="34" height="10" stroke="none"/>
      <rect x="2.5" y="2.5" width="29" height="5" fill="none"/>
    </g>
    <g id="사각형_366" data-name="사각형 366" transform="translate(220 857)" fill="none" stroke="#fff" stroke-width="5">
      <rect width="34" height="10" stroke="none"/>
      <rect x="2.5" y="2.5" width="29" height="5" fill="none"/>
    </g>
    <g id="사각형_367" data-name="사각형 367" transform="translate(220 871)" fill="none" stroke="#fff" stroke-width="5">
      <rect width="34" height="10" stroke="none"/>
      <rect x="2.5" y="2.5" width="29" height="5" fill="none"/>
    </g>
    <g id="사각형_368" data-name="사각형 368" transform="translate(220 885)" fill="none" stroke="#fff" stroke-width="5">
      <rect width="34" height="10" stroke="none"/>
      <rect x="2.5" y="2.5" width="29" height="5" fill="none"/>
    </g>
  </g>
</svg>
