<svg xmlns="http://www.w3.org/2000/svg" width="377.587" height="82.91" viewBox="0 0 377.587 82.91">
  <path id="합치기_33" data-name="합치기 33" d="M3702.261,200.91a2,2,0,0,1-2-2V138.1h-14.3v62.81h-32.326a2,2,0,0,1-2-2V120a2,2,0,0,1,2-2h78.955a2,2,0,0,1,2,2v80.91Zm-137.3,0a2,2,0,0,1-2-2V120a2,2,0,0,1,2-2h78.094v20.1h-45.768v62.81Zm-45.768,0a2,2,0,0,1-2-2V138.1h-14.3v62.81H3470.56a2,2,0,0,1-2-2V120a2,2,0,0,1,2-2h78.955a2,2,0,0,1,2,2v80.91Zm-127.863,0H3359a2,2,0,0,1-2-2V120a2,2,0,0,1,2-2h83.815c8.5,0,15.564,5.433,16.926,12.562h.237v55.273c0,8.326-7.684,15.075-17.163,15.075Zm34.326-20.1V138.1h-34.326V180.81Z" transform="translate(-3357 -118)" fill="#707070"/>
</svg>
