<svg xmlns="http://www.w3.org/2000/svg" width="160" height="160" viewBox="0 0 160 160">
  <g id="그룹_331" data-name="그룹 331" transform="translate(-881 -519)">
    <rect id="사각형_335" data-name="사각형 335" width="160" height="160" rx="25" transform="translate(881 519)" fill="#ffc044"/>
    <g id="사각형_345" data-name="사각형 345" transform="translate(897 548)" fill="none" stroke="#fff" stroke-width="5">
      <rect width="127" height="102" stroke="none"/>
      <rect x="2.5" y="2.5" width="122" height="97" fill="none"/>
    </g>
    <g id="사각형_346" data-name="사각형 346" transform="translate(897 548)" fill="none" stroke="#fff" stroke-width="5">
      <rect width="127" height="26" stroke="none"/>
      <rect x="2.5" y="2.5" width="122" height="21" fill="none"/>
    </g>
    <g id="사각형_347" data-name="사각형 347" transform="translate(1002 548)" fill="none" stroke="#fff" stroke-width="5">
      <rect width="22" height="26" stroke="none"/>
      <rect x="2.5" y="2.5" width="17" height="21" fill="none"/>
    </g>
    <g id="사각형_348" data-name="사각형 348" transform="translate(897 548)" fill="none" stroke="#fff" stroke-width="5">
      <rect width="23" height="26" stroke="none"/>
      <rect x="2.5" y="2.5" width="18" height="21" fill="none"/>
    </g>
    <g id="사각형_349" data-name="사각형 349" transform="translate(986 548)" fill="none" stroke="#fff" stroke-width="5">
      <rect width="38" height="26" stroke="none"/>
      <rect x="2.5" y="2.5" width="33" height="21" fill="none"/>
    </g>
    <rect id="사각형_350" data-name="사각형 350" width="101" height="24" transform="translate(910 583)" fill="#fff"/>
    <rect id="사각형_351" data-name="사각형 351" width="31" height="24" transform="translate(910 612)" fill="#fff"/>
    <rect id="사각형_352" data-name="사각형 352" width="31" height="24" transform="translate(945 612)" fill="#fff"/>
    <rect id="사각형_353" data-name="사각형 353" width="31" height="24" transform="translate(980 612)" fill="#fff"/>
  </g>
</svg>
