<svg xmlns="http://www.w3.org/2000/svg" xmlns:xlink="http://www.w3.org/1999/xlink" width="567.999" height="144.002" viewBox="0 0 567.999 144.002">
  <defs>
    <filter id="합치기_11" x="0" y="0" width="567.999" height="144.002" filterUnits="userSpaceOnUse">
      <feOffset dy="3" input="SourceAlpha"/>
      <feGaussianBlur stdDeviation="3" result="blur"/>
      <feFlood flood-opacity="0.161"/>
      <feComposite operator="in" in2="blur"/>
      <feComposite in="SourceGraphic"/>
    </filter>
  </defs>
  <g transform="matrix(1, 0, 0, 1, 0, 0)" filter="url(#합치기_11)">
    <path id="합치기_11-2" data-name="합치기 11" d="M393-39a2,2,0,0,1-2-2v-93.455H370.165V-39h-48a2,2,0,0,1-2-2V-163a2,2,0,0,1,2-2H439a2,2,0,0,1,2,2V-39ZM126.333-39a2,2,0,0,1-2-2v-93.455H103.5V-165h68.834a2,2,0,0,1,2,2V-39ZM-59-39h-48a2,2,0,0,1-2-2V-163a2,2,0,0,1,2-2H16c12.387,0,22.67,8.256,24.654,19.091H41v84C41-49.256,29.806-39,16-39ZM-9-69.545v-64.91H-59v64.91ZM193-39a2,2,0,0,1-2-2V-163a2,2,0,0,1,2-2H307.666v30.546H241V-39ZM55.5-39a2,2,0,0,1-2-2V-163a2,2,0,0,1,2-2h48V-39Z" transform="translate(118 171)" fill="#fff"/>
  </g>
</svg>
