<svg xmlns="http://www.w3.org/2000/svg" width="38" height="59" viewBox="0 0 38 59">
  <path id="제외_1" data-name="제외 1" d="M19.018,59h0a10.65,10.65,0,0,0-.976-1.185A121,121,0,0,1,7.564,44.062C2.545,36.217,0,29.421,0,23.863,0,16.625,1.91,10.531,5.525,6.239a17.374,17.374,0,0,1,6.039-4.645A17.664,17.664,0,0,1,19.015,0a17.635,17.635,0,0,1,7.447,1.594,17.332,17.332,0,0,1,6.028,4.645C36.1,10.529,38,16.623,38,23.863c0,7.818-5.1,16.939-9.387,23.213A85.524,85.524,0,0,1,19.018,59ZM19,11.8a7.587,7.587,0,1,0,7.435,7.586A7.52,7.52,0,0,0,19,11.8Z" fill="#f1b53d"/>
</svg>
