<svg xmlns="http://www.w3.org/2000/svg" width="225" height="216" viewBox="0 0 225 216">
  <g id="그룹_321" data-name="그룹 321" transform="translate(-1335 -3565)">
    <rect id="사각형_310" data-name="사각형 310" width="225" height="216" rx="25" transform="translate(1335 3565)" fill="#ffc044"/>
    <rect id="사각형_312" data-name="사각형 312" width="91.863" height="132.967" transform="translate(1513.967 3627) rotate(90)" fill="#fff"/>
    <g id="다각형_16" data-name="다각형 16" transform="translate(1523 3683) rotate(180)" fill="none">
      <path d="M73.763.973a2,2,0,0,1,2.473,0l69.223,54.455A2,2,0,0,1,144.223,59H5.777a2,2,0,0,1-1.237-3.572Z" stroke="none"/>
      <path d="M 74.99999237060547 6.361679077148438 L 14.44282531738281 53.9999885559082 L 135.5571594238281 53.9999885559082 L 74.99999237060547 6.361679077148438 M 74.99999237060547 0.5446662902832031 C 75.43688201904297 0.5446662902832031 75.87377166748047 0.6873626708984375 76.23656463623047 0.9727630615234375 L 145.4594268798828 55.42807769775391 C 146.9517669677734 56.60205841064453 146.1216125488281 58.9999885559082 144.2228698730469 58.9999885559082 L 5.777130126953125 58.9999885559082 C 3.87835693359375 58.9999885559082 3.048202514648438 56.60205841064453 4.540542602539062 55.42807769775391 L 73.76341247558594 0.9727630615234375 C 74.12620544433594 0.6873626708984375 74.56309509277344 0.5446662902832031 74.99999237060547 0.5446662902832031 Z" stroke="none" fill="#ffc044"/>
    </g>
  </g>
</svg>
