<svg xmlns="http://www.w3.org/2000/svg" width="92.754" height="55" viewBox="0 0 92.754 55">
  <g id="그룹_328" data-name="그룹 328" transform="translate(-539.476 -2275)">
    <rect id="사각형_409" data-name="사각형 409" width="10" height="5" transform="translate(582 2275)" fill="#d4d4d4"/>
    <path id="패스_51" data-name="패스 51" d="M0,17.777C.273,15.2,12.216.867,18.715,0S57.084-1.6,58.783,0s8.584,18.346,17.259,19.508,14.683,4.717,15.725,7.467,0,12.439,0,12.439L70,43s1.147-7.732-7.818-7.83-7.814,7.522-7.814,7.522H25.881s-.161-7.6-8.456-7.522S9.509,43,9.509,43,1.029,40.6,0,37.876-.273,20.349,0,17.777Z" transform="translate(540 2280)" fill="#f1b53d"/>
    <circle id="타원_43" data-name="타원 43" cx="8.5" cy="8.5" r="8.5" transform="translate(549 2313)" fill="#b4b4b4"/>
    <circle id="타원_44" data-name="타원 44" cx="8.5" cy="8.5" r="8.5" transform="translate(594 2313)" fill="#b4b4b4"/>
    <circle id="타원_45" data-name="타원 45" cx="1.5" cy="1.5" r="1.5" transform="translate(556 2320)" fill="#f1b53d"/>
    <circle id="타원_46" data-name="타원 46" cx="1.5" cy="1.5" r="1.5" transform="translate(601 2320)" fill="#f1b53d"/>
  </g>
</svg>
