<svg xmlns="http://www.w3.org/2000/svg" width="85" height="85" viewBox="0 0 85 85">
  <g id="그룹_247" data-name="그룹 247" transform="translate(-1723 -1763)">
    <circle id="타원_49" data-name="타원 49" cx="42.5" cy="42.5" r="42.5" transform="translate(1723 1763)" fill="#ffc044"/>
    <path id="합치기_34" data-name="합치기 34" d="M.449,44.1a4.946,4.946,0,0,1,1.224-5.82L22.287,23.115,1.673,7.952A4.947,4.947,0,0,1,.448,2.131C1.372.093,3.417-.6,5.017.571l25.2,18.534a4.66,4.66,0,0,1,1.664,4.01,4.66,4.66,0,0,1-1.664,4.01L5.017,45.659a2.8,2.8,0,0,1-1.669.572A3.291,3.291,0,0,1,.449,44.1Z" transform="translate(1741.983 1821.041) rotate(-90)" fill="#fff"/>
  </g>
</svg>
